<svg id="ecO1T6uwsJk1" xmlns="http://www.w3.org/2000/svg" width="396" height="101" viewBox="0 0 396 101" fill="none"><path d="M922.594238,523.695801c-.766723,2.592895-1.389221,4.802917-2.045166,7.131592-9.135559,0-18.105346,0-27.601013,0-8.654053-31.831971-17.345703-63.802399-26.037414-95.772828-.292664.001984-.585389.003937-.878113.005921-8.711243,31.871307-17.422425,63.742645-26.172791,95.757141-9.080505,0-18.042846,0-27.67633,0-9.354248-34.459381-18.767517-69.1362-28.276673-104.16626c10.430237,0,20.362488,0,30.845215,0c3.524719,16.217041,7.073059,32.542603,10.621399,48.868164.404663.06189.809326.12381,1.21405.18573c3.520874-16.32901,7.041748-32.65805,10.608704-49.200928c19.490295,0,38.747253,0,58.291809,0c3.611755,16.659974,7.16095,33.031434,10.710144,49.402894.354065.055389.708191.110778,1.062317.166168c3.565063-16.52179,7.130066-33.043579,10.715942-49.661896c18.441285,0,36.415223-.060516,54.386475.132477c1.233215.013244,3.067383,1.685211,3.564758,2.989105c2.656616,6.963898,4.976868,14.056061,7.938172,22.621613c3.441223-9.401032,6.409485-17.509949,9.35321-25.55188c10.088928,0,19.869934,0,30.215698,0-.718322,1.841766-1.238647,3.355438-1.887634,4.811767-7.235901,16.238434-14.55658,32.439667-21.673157,48.730042-1.088257,2.491272-1.738952,5.377838-1.772278,8.091614-.172973,14.113311-.080505,28.229888-.080505,42.555511-9.499145,0-18.576599,0-28.147156,0c0-13.766663.163697-27.374878-.107727-40.974457-.073547-3.686004-.902466-7.583191-2.342895-10.976684-6.352417-14.965729-13.054932-29.782807-20.130615-45.784546-8.385071,30.822052-16.469666,60.539398-24.698426,90.63974Z" transform="translate(-108.647059-384.276821)" fill="#ff0a03"/><path d="M496.999329,437.875916c2.801239-11.463654,2.801788-11.532258,14.178527-11.442841c9.818238.077179,19.649903.05542,29.449036.576538c14.876343.791168,25.396668,9.431091,29.109314,23.681763c2.476685,9.506256,2.394898,19.146209.013123,28.662811-1.933045,7.723663-6.247925,13.898773-13.52948,18.024963c5.015747,11.197419,9.935913,22.181336,14.998474,33.483216-11.006104,0-21.457825,0-32.163941,0-3.258972-9.925354-6.524719-19.871399-9.790466-29.817414-.403564.083649-.807129.167298-1.210693.250946c0,9.679444,0,19.358887,0,29.369751-9.666138,0-18.868805,0-28.505982,0c0-25.159851,0-50.23291,0-75.598877-2.150909-.197662-3.906494-.359008-6.169281-.566955c1.228058-5.5849,2.396149-10.897186,3.621369-16.623901m36.754394,16.274902c-1.789917-.113587-3.579834-.227203-5.502502-.349243c0,8.303375,0,16.283935,0,24.249969c8.018799.124359,11.523437-2.230987,12.945251-8.428467c1.703674-7.425933-.38385-12.221618-7.442749-15.472259Z" transform="translate(-68.611764-383.717647)" fill="#ff0902"/><path d="M273.197083,477.000031c.00003-7.625763.00003-14.751526.00003-21.927399-2.237457-.232422-4.007355-.41626-6.110077-.634674c2.059967-9.294678,4.066681-18.349182,6.160217-27.795502c12.342347,0,24.619324-.488556,36.843811.104584c23.383973,1.134643,34.836152,13.403473,34.95456,36.981354.026489,5.268981-.634766,10.632721-1.727234,15.794525-1.620178,7.654907-6.063629,13.585266-13.355103,17.841736c4.928498,10.986907,9.847443,21.952484,15.087342,33.633575-10.525757,0-20.559571.076294-30.587494-.131287-.890656-.018432-2.145539-1.744873-2.548157-2.913391-2.705048-7.850647-5.217895-15.767395-7.814148-23.655761-.344055-1.045441-.807709-2.051545-2.225281-3.016968c0,9.749115,0,19.49823,0,29.476745-9.831421,0-18.924072,0-28.678466,0c0-17.750915,0-35.504242,0-53.757537m39.396209-20.004426c-3.141205-2.925079-6.749542-3.727996-10.750763-2.677856c0,8.020782,0,15.74472,0,23.431793c6.88263.759857,11.535431-1.074951,12.408417-6.337372.731812-4.411224-.697266-9.180938-1.657654-14.416565Z" transform="translate(-68.611764-383.717647)" fill="#ff0b04"/><path d="M765.895508,446.004211c6.691345,28.381043,13.311889,56.351197,20.016296,84.675477-10.394531,0-20.58728,0-31.107788,0-1.211853-5.762757-2.436767-11.58783-3.683411-17.516358-6.533996,0-12.83673,0-19.610656,0-1.246399,5.731628-2.504883,11.519104-3.821595,17.574036-9.869445,0-19.796325,0-30.176391,0c6.144897-25.1969,12.241333-50.195038,18.426819-75.558319-1.881043-.230927-3.598877-.441834-6.042176-.741791c2.079895-9.368469,4.136292-18.631012,6.222046-28.025726c14.250061,0,28.067505-.087616,41.8797.138977c1.343323.022033,3.428711,1.745239,3.84436,3.088775c1.617493,5.228272,2.700318,10.621887,4.052796,16.364929M735.12323,488.527924c4.171753.545776,8.343567,1.091552,13.279968,1.737335-2.34436-10.23819-4.414917-19.28064-6.795105-29.675537-2.350769,10.01062-4.3573,18.55545-6.484863,27.938202Z" transform="translate(-108.647059-384.27682)" fill="#ff0903"/><path d="M253.317459,474.510223c4.518509,18.952088,8.919571,37.505097,13.381607,56.315277-10.511719,0-20.626831,0-31.118622,0-1.220413-5.833374-2.434524-11.636657-3.686294-17.619812-6.513062,0-12.959397,0-19.666519,0-1.259583,5.830567-2.508622,11.612305-3.795121,17.567505-9.967483,0-19.742324,0-30.165985,0c6.127548-25.168213,12.224716-50.211578,18.394501-75.553192-2.025955-.297638-3.754166-.551544-5.969589-.877014c1.907562-8.730804,3.713089-17.312866,5.751358-25.839233.207428-.867707,1.808594-1.991852,2.772095-2.000641c14.12799-.129059,28.257537-.088776,42.762084-.088776c3.773804,16.038269,7.498414,31.867523,11.340485,48.095886m-33.162277-4.855957c-1.449127,6.536072-2.898239,13.072144-4.382492,19.766632c4.719971,0,8.764511,0,13.173157,0-2.122712-9.35144-4.158982-18.322052-6.502961-28.648284-.936676,3.641632-1.509872,5.870147-2.287704,8.881652Z" transform="translate(-68.611764-383.717647)" fill="#ff0903"/><path d="M456.570312,493.868896c-.002471,3.15033-.002471,5.788758-.002471,8.914368c10.157745,0,19.913421,0,30.160766,0-2.112518,9.598389-4.099365,18.625672-6.146911,27.92865-17.2753,0-34.523621,0-52.201844,0c0-25.076385,0-50.143127,0-75.562103-2.241211-.263001-4.110382-.482361-6.289703-.738098c2.067413-9.320221,4.075622-18.373444,6.212067-28.004761c10.48822,0,20.922149.10907,31.349609-.101441c1.859009-.037567,3.691223-1.400665,5.202484-3.256042c7.808991,0,15.617981,0,24.040924,0-2.361877,10.681335-4.665863,21.100769-7.022888,31.760162-8.399384,0-16.522583,0-24.972321,0c0,4.04245,0,7.791291,0,12.177338c9.694916,0,19.572236,0,29.902222,0-1.715942,8.130798-3.284576,15.563416-4.897064,23.204041-7.458069,0-14.593903.068145-21.727142-.038239-2.376282-.035431-3.949433.388977-3.607728,3.716125Z" transform="translate(-68.611764-383.717647)" fill="#ff0b04"/><path d="M380,531.003967c-7.801208,0-15.102448,0-22.895416,0c0-25.48999,0-50.706482,0-75.967376-2.263825-.208954-4.042145-.373078-6.272278-.578919c2.102386-9.439148,4.14975-18.631134,6.246612-28.045441c10.466553,0,20.603821.060517,30.739197-.05191c1.988831-.022034,4.986695,1.339264,5.256989-2.636047.022217-.32666,1.649719-.76886,2.534668-.776703c7.138946-.063446,14.278656-.035584,22.039764-.035584-2.353302,10.719025-4.612945,21.011322-6.965088,31.725006-8.344787,0-16.609192,0-25.179077,0c0,4.204224,0,7.954041,0,12.245331c9.627441,0,19.351715,0,29.962372,0-1.637329,8.04065-3.13739,15.407318-4.723663,23.197327-8.325684,0-16.593659,0-25.202301,0c0,4.333526,0,8.222748,0,12.630401c9.740142,0,19.4776,0,29.942962,0-2.156799,9.77829-4.172241,18.915925-6.240753,28.293915-9.811035,0-19.277496,0-29.243988,0Z" transform="translate(-68.611764-383.717647)" fill="#ff0902"/><path d="M629.95636,440.075775c9.389953-15.513763,23.341308-17.146362,39.103393-13.488983.589478-1.468292,1.064515-2.65152,1.698975-4.231689c7.25354,1.735717,14.47229,3.463073,22.266663,5.328186-2.322388,9.501342-4.586182,18.762909-6.598633,26.996185-6.877747-1.971466-13.387207-3.987732-19.991028-5.623444-1.627869-.403259-3.675476.131501-5.334473.755493-4.563965,1.716736-5.343994,5.718689-1.610778,8.84195c2.399536,2.007507,5.227722,3.533264,7.964477,5.098907c3.027466,1.731995,6.126953,3.352295,9.269409,4.867035c17.572937,8.470612,20.740418,24.663147,17.049683,39.423645-3.79895,15.193024-17.450867,24.844086-34.088379,24.544709-10.361816-.186524-20.04419-2.992554-29.044617-8.020997-1.243408-.694641-2.769775-2.799011-2.537781-3.911315c1.656434-7.943787,3.735108-15.799561,5.547608-23.14853c7.128784,2.42212,13.890808,4.856781,20.754578,6.959351c1.811767.554993,4.022277.451416,5.902893.016022c5.375488-1.244446,6.812378-6.506439,2.680542-10.200379-2.316895-2.071411-5.190308-3.573761-7.948304-5.085754-3.932434-2.155853-8.098693-3.89624-11.973571-6.144043-16.496643-9.569855-21.340455-25.30481-13.110657-42.976349Z" transform="translate(-108.647059-384.276821)" fill="#ff0903"/><path d="M118.922485,521.084717c-14.715835-15.116181-16.716056-33.423767-14.439216-52.746948c1.204147-10.219452,4.574493-19.821351,11.139808-27.918335c9.355973-11.538819,21.131592-17.412171,36.385483-14.800446c1.501328.25705,3.248932-.924316,6.106262-1.823059c5.398102,2.498383,12.151642,5.624084,19.314774,8.939331-3.882675,10.313995-7.668518,20.370728-11.548966,30.678802-2.546401-2.381622-4.629562-4.75885-7.118911-6.581268-9.03981-6.617706-19.943909-3.330078-23.262375,7.269531-3.10286,9.910859-3.080765,20.111542.040954,30.015259c3.675766,11.661438,13.885682,14.229889,22.864838,5.950867c2.657883-2.450623,4.829331-5.428833,7.462677-8.438385c3.352417,8.840424,6.741699,17.490387,9.809586,26.25293.360412,1.029358-.678971,3.106445-1.690216,3.975341-16.847412,14.476014-37.966248,14.225159-55.064698-.77362Z" transform="translate(-68.611764-383.717647)" fill="#ff0903"/><path d="M312.837341,457.307922c.716339,4.92331,2.145417,9.693024,1.413605,14.104248-.872986,5.262421-5.525787,7.097229-12.408417,6.337372c0-7.687073,0-15.411011,0-23.431793c4.001221-1.05014,7.609558-.247223,10.994812,2.990173Z" transform="translate(-68.611764-383.717647)" fill="#fff"/><path d="M220.257507,469.262756c.675507-2.619995,1.248703-4.84851,2.185379-8.490142c2.343979,10.326232,4.380249,19.296844,6.502961,28.648284-4.408646,0-8.453186,0-13.173157,0c1.484253-6.694488,2.933365-13.23056,4.484817-20.158142Z" transform="translate(-68.611764-383.717647)" fill="#fff0ef"/>
  <defs>
    <clipPath id="clip0_159_1490">
      <rect width="395.367" height="100" fill="white" transform="translate(0.316605 0.5)"/>
    </clipPath>
  </defs>
</svg>
